<svg width="130" height="96" viewBox="0 0 130 96" fill="none" xmlns="http://www.w3.org/2000/svg">
<path d="M46.4043 55.4776V41.7639H51.6934C52.6919 41.7639 53.5217 41.9201 54.1828 42.2326C54.8484 42.5407 55.3454 42.9625 55.6737 43.4982C56.0065 44.0339 56.173 44.641 56.173 45.3196C56.173 45.8776 56.065 46.3552 55.8491 46.7525C55.6333 47.1454 55.3432 47.4646 54.9789 47.7101C54.6146 47.9556 54.2075 48.1319 53.7578 48.2391V48.373C54.248 48.3998 54.718 48.5493 55.1678 48.8216C55.622 49.0895 55.9931 49.4689 56.2809 49.96C56.5687 50.451 56.7127 51.0448 56.7127 51.7412C56.7127 52.451 56.5395 53.0893 56.1932 53.6563C55.8469 54.2187 55.3252 54.6629 54.628 54.9888C53.9309 55.3147 53.0539 55.4776 51.997 55.4776H46.4043ZM48.9072 53.4018H51.599C52.5075 53.4018 53.1619 53.2299 53.5621 52.8862C53.9669 52.538 54.1693 52.0916 54.1693 51.547C54.1693 51.1407 54.0681 50.7747 53.8657 50.4488C53.6633 50.1185 53.3755 49.8595 53.0022 49.6721C52.6289 49.4801 52.1836 49.3841 51.6664 49.3841H48.9072V53.4018ZM48.9072 47.5963H51.3831C51.8148 47.5963 52.2039 47.5181 52.5502 47.3619C52.8965 47.2012 53.1686 46.9757 53.3665 46.6856C53.5689 46.3909 53.6701 46.0427 53.6701 45.641C53.6701 45.1097 53.4812 44.6723 53.1034 44.3285C52.7301 43.9848 52.1746 43.8129 51.437 43.8129H48.9072V47.5963Z" fill="white"/>
<path d="M63.3696 55.6785C62.3307 55.6785 61.4334 55.4642 60.6778 55.0357C59.9267 54.6027 59.3488 53.9911 58.944 53.2009C58.5392 52.4063 58.3368 51.4711 58.3368 50.3952C58.3368 49.3372 58.5392 48.4087 58.944 47.6096C59.3533 46.8061 59.9245 46.1811 60.6576 45.7347C61.3907 45.2838 62.2519 45.0584 63.2414 45.0584C63.8801 45.0584 64.4827 45.1611 65.0494 45.3664C65.6206 45.5673 66.1243 45.8798 66.5606 46.3039C67.0013 46.728 67.3477 47.2681 67.5995 47.9244C67.8514 48.5761 67.9773 49.3529 67.9773 50.2546V50.9979H59.4837V49.364H65.6363C65.6318 48.8998 65.5306 48.4868 65.3328 48.1252C65.1349 47.7592 64.8583 47.4713 64.503 47.2614C64.1522 47.0516 63.7429 46.9467 63.2751 46.9467C62.7759 46.9467 62.3374 47.0673 61.9596 47.3083C61.5818 47.5449 61.2872 47.8574 61.0758 48.2458C60.8689 48.6297 60.7633 49.0515 60.7588 49.5113V50.9376C60.7588 51.5358 60.8689 52.0492 61.0893 52.4777C61.3097 52.9018 61.6178 53.2277 62.0136 53.4554C62.4094 53.6786 62.8726 53.7902 63.4033 53.7902C63.7586 53.7902 64.0802 53.7411 64.368 53.6429C64.6559 53.5402 64.9055 53.3907 65.1169 53.1942C65.3283 52.9978 65.4879 52.7545 65.5959 52.4644L67.8761 52.7188C67.7322 53.317 67.4578 53.8393 67.0531 54.2857C66.6528 54.7276 66.1401 55.0714 65.5149 55.3169C64.8898 55.558 64.1746 55.6785 63.3696 55.6785Z" fill="white"/>
<path d="M73.0252 55.6852C72.3686 55.6852 71.7772 55.5691 71.251 55.337C70.7292 55.1004 70.3155 54.7522 70.0096 54.2924C69.7083 53.8326 69.5576 53.2657 69.5576 52.5916C69.5576 52.0112 69.6656 51.5314 69.8815 51.1519C70.0973 50.7725 70.3919 50.4689 70.7652 50.2412C71.1385 50.0136 71.559 49.8417 72.0268 49.7256C72.499 49.6051 72.987 49.518 73.4907 49.4645C74.0979 49.402 74.5904 49.3462 74.9682 49.2971C75.346 49.2435 75.6203 49.1631 75.7912 49.056C75.9666 48.9444 76.0543 48.7725 76.0543 48.5404V48.5002C76.0543 47.9958 75.9037 47.6052 75.6023 47.3284C75.301 47.0516 74.867 46.9132 74.3003 46.9132C73.7021 46.9132 73.2276 47.0427 72.8768 47.3016C72.5305 47.5605 72.2966 47.8663 72.1752 48.219L69.8949 47.8976C70.0749 47.2726 70.3717 46.7503 70.7855 46.3307C71.1992 45.9066 71.7052 45.5896 72.3034 45.3798C72.9016 45.1655 73.5627 45.0584 74.2868 45.0584C74.786 45.0584 75.283 45.1164 75.7777 45.2325C76.2725 45.3486 76.7245 45.5405 77.1337 45.8084C77.543 46.0718 77.8713 46.4311 78.1187 46.8865C78.3706 47.3418 78.4965 47.911 78.4965 48.594V55.4776H76.1488V54.0647H76.0678C75.9194 54.3504 75.7103 54.6183 75.4404 54.8683C75.1751 55.1138 74.84 55.3124 74.4352 55.4642C74.0349 55.6115 73.5649 55.6852 73.0252 55.6852ZM73.6594 53.904C74.1496 53.904 74.5746 53.808 74.9344 53.6161C75.2942 53.4197 75.5708 53.1608 75.7642 52.8393C75.9621 52.5179 76.0611 52.1675 76.0611 51.788V50.576C75.9846 50.6385 75.8542 50.6966 75.6698 50.7501C75.4899 50.8037 75.2875 50.8506 75.0626 50.8908C74.8377 50.9309 74.6151 50.9666 74.3947 50.9979C74.1744 51.0291 73.9832 51.0559 73.8213 51.0782C73.457 51.1274 73.1309 51.2077 72.8431 51.3193C72.5552 51.4309 72.3281 51.5872 72.1617 51.788C71.9953 51.9845 71.9121 52.2389 71.9121 52.5514C71.9121 52.9978 72.0763 53.3349 72.4046 53.5625C72.7329 53.7902 73.1512 53.904 73.6594 53.904Z" fill="white"/>
<path d="M86.1266 45.1923V47.0673H80.1696V45.1923H86.1266ZM81.6403 42.7282H84.0824V52.384C84.0824 52.7099 84.1319 52.9599 84.2309 53.134C84.3343 53.3036 84.4692 53.4197 84.6356 53.4822C84.8021 53.5447 84.9864 53.5759 85.1888 53.5759C85.3418 53.5759 85.4812 53.5648 85.6071 53.5424C85.7375 53.5201 85.8365 53.5 85.9039 53.4822L86.3155 55.3772C86.185 55.4218 85.9984 55.4709 85.7555 55.5245C85.5172 55.5781 85.2248 55.6093 84.8785 55.6182C84.2668 55.6361 83.7159 55.5446 83.2257 55.3437C82.7354 55.1383 82.3464 54.8214 82.0585 54.3928C81.7752 53.9643 81.6358 53.4286 81.6403 52.7858V42.7282Z" fill="white"/>
<path d="M88.4996 55.4776V41.7639H97.3507V43.8464H91.0025V47.5695H96.7436V49.652H91.0025V55.4776H88.4996Z" fill="white"/>
<path d="M101.965 41.7639V55.4776H99.5231V41.7639H101.965Z" fill="white"/>
<path d="M108.997 55.6785C107.985 55.6785 107.108 55.4575 106.366 55.0156C105.623 54.5736 105.048 53.9554 104.638 53.1608C104.234 52.3661 104.031 51.4376 104.031 50.3752C104.031 49.3127 104.234 48.3819 104.638 47.5829C105.048 46.7838 105.623 46.1633 106.366 45.7213C107.108 45.2794 107.985 45.0584 108.997 45.0584C110.009 45.0584 110.886 45.2794 111.628 45.7213C112.37 46.1633 112.943 46.7838 113.348 47.5829C113.757 48.3819 113.962 49.3127 113.962 50.3752C113.962 51.4376 113.757 52.3661 113.348 53.1608C112.943 53.9554 112.37 54.5736 111.628 55.0156C110.886 55.4575 110.009 55.6785 108.997 55.6785ZM109.01 53.7366C109.559 53.7366 110.018 53.5871 110.386 53.288C110.755 52.9844 111.029 52.5782 111.209 52.0693C111.394 51.5604 111.486 50.9934 111.486 50.3685C111.486 49.739 111.394 49.1698 111.209 48.6609C111.029 48.1476 110.755 47.7391 110.386 47.4355C110.018 47.132 109.559 46.9802 109.01 46.9802C108.448 46.9802 107.98 47.132 107.607 47.4355C107.238 47.7391 106.961 48.1476 106.777 48.6609C106.597 49.1698 106.507 49.739 106.507 50.3685C106.507 50.9934 106.597 51.5604 106.777 52.0693C106.961 52.5782 107.238 52.9844 107.607 53.288C107.98 53.5871 108.448 53.7366 109.01 53.7366Z" fill="white"/>
<path d="M117.876 55.4776L114.949 45.1923H117.438L119.259 52.4242H119.354L121.216 45.1923H123.678L125.54 52.384H125.641L127.436 45.1923H129.932L126.997 55.4776H124.454L122.511 48.527H122.369L120.427 55.4776H117.876Z" fill="white"/>
<path fill-rule="evenodd" clip-rule="evenodd" d="M89.9328 61C84.3745 78.9019 67.681 91.9023 47.9511 91.9023C23.6776 91.9023 4 72.2247 4 47.9511C4 23.6776 23.6776 4 47.9511 4C68.4438 4 85.6607 18.025 90.527 37H94.646C89.6922 15.7944 70.6661 0 47.9511 0C21.4685 0 0 21.4685 0 47.9511C0 74.4338 21.4685 95.9023 47.9511 95.9023C69.9106 95.9023 88.4224 81.1411 94.1054 61H89.9328Z" fill="white"/>
<path fill-rule="evenodd" clip-rule="evenodd" d="M60.2725 61C57.2521 63.8374 53.187 65.5755 48.7159 65.5755C39.3923 65.5755 31.834 58.0172 31.834 48.6936C31.834 39.3699 39.3923 31.8116 48.7159 31.8116C53.5005 31.8116 57.8202 33.802 60.8922 37H66.0192C62.265 31.4556 55.916 27.8116 48.7159 27.8116C37.1831 27.8116 27.834 37.1608 27.834 48.6936C27.834 60.2264 37.1831 69.5755 48.7159 69.5755C55.6472 69.5755 61.7898 66.1985 65.588 61H60.2725Z" fill="white"/>
</svg>
