<?xml version="1.0"?>
<svg width="140" height="140" xmlns="http://www.w3.org/2000/svg" xmlns:svg="http://www.w3.org/2000/svg">
 <g class="layer">
  <title>Layer 1</title>
  <g id="svg_11">
   <path d="m51.4,76.78l0,-13.72l5.29,0c1,0 1.83,0.16 2.49,0.47c0.67,0.31 1.17,0.73 1.49,1.27c0.34,0.53 0.5,1.14 0.5,1.82c0,0.56 -0.11,1.04 -0.32,1.43c-0.22,0.4 -0.51,0.71 -0.87,0.96c-0.37,0.25 -0.77,0.42 -1.22,0.53l0,0.13c0.49,0.03 0.96,0.18 1.41,0.45c0.45,0.27 0.82,0.65 1.11,1.14c0.29,0.49 0.43,1.08 0.43,1.78c0,0.71 -0.17,1.35 -0.52,1.92c-0.34,0.56 -0.86,1 -1.56,1.33c-0.7,0.32 -1.58,0.49 -2.63,0.49l-5.6,0zm2.51,-2.08l2.69,0c0.91,0 1.56,-0.17 1.96,-0.51c0.41,-0.35 0.61,-0.8 0.61,-1.34c0,-0.41 -0.1,-0.78 -0.3,-1.1c-0.21,-0.33 -0.49,-0.59 -0.87,-0.78c-0.37,-0.19 -0.82,-0.29 -1.33,-0.29l-2.76,0l0,4.02zm0,-5.8l2.47,0c0.43,0 0.82,-0.08 1.17,-0.24c0.35,-0.16 0.62,-0.38 0.82,-0.67c0.2,-0.3 0.3,-0.65 0.3,-1.05c0,-0.53 -0.19,-0.97 -0.57,-1.31c-0.37,-0.35 -0.93,-0.52 -1.66,-0.52l-2.53,0l0,3.79z" fill="black" id="svg_1"/>
   <path d="m68.37,76.98c-1.04,0 -1.94,-0.22 -2.69,-0.64c-0.75,-0.44 -1.33,-1.05 -1.74,-1.84c-0.4,-0.79 -0.6,-1.73 -0.6,-2.8c0,-1.06 0.2,-1.99 0.6,-2.79c0.41,-0.8 0.98,-1.43 1.72,-1.88c0.73,-0.45 1.59,-0.67 2.58,-0.67c0.64,0 1.24,0.1 1.81,0.31c0.57,0.2 1.07,0.51 1.51,0.93c0.44,0.43 0.79,0.97 1.04,1.62c0.25,0.66 0.38,1.43 0.38,2.33l0,0.75l-8.5,0l0,-1.64l6.16,0c-0.01,-0.46 -0.11,-0.87 -0.31,-1.23c-0.2,-0.37 -0.47,-0.66 -0.83,-0.87c-0.35,-0.21 -0.76,-0.31 -1.22,-0.31c-0.5,0 -0.94,0.12 -1.32,0.36c-0.38,0.23 -0.67,0.55 -0.88,0.94c-0.21,0.38 -0.32,0.8 -0.32,1.26l0,1.43c0,0.6 0.11,1.11 0.33,1.54c0.22,0.42 0.53,0.75 0.92,0.98c0.4,0.22 0.86,0.33 1.39,0.33c0.36,0 0.68,-0.05 0.97,-0.15c0.29,-0.1 0.54,-0.25 0.75,-0.45c0.21,-0.19 0.37,-0.44 0.48,-0.73l2.28,0.26c-0.15,0.6 -0.42,1.12 -0.83,1.57c-0.4,0.44 -0.91,0.78 -1.54,1.03c-0.62,0.24 -1.34,0.36 -2.14,0.36z" fill="black" id="svg_2"/>
   <path d="m78.03,76.99c-0.66,0 -1.25,-0.12 -1.78,-0.35c-0.52,-0.24 -0.93,-0.59 -1.24,-1.05c-0.3,-0.46 -0.45,-1.02 -0.45,-1.7c0,-0.58 0.11,-1.06 0.32,-1.44c0.22,-0.38 0.51,-0.68 0.89,-0.91c0.37,-0.23 0.79,-0.4 1.26,-0.51c0.47,-0.12 0.96,-0.21 1.46,-0.27c0.61,-0.06 1.1,-0.11 1.48,-0.16c0.38,-0.06 0.65,-0.14 0.82,-0.24c0.18,-0.12 0.26,-0.29 0.26,-0.52l0,-0.04c0,-0.5 -0.15,-0.89 -0.45,-1.17c-0.3,-0.28 -0.73,-0.42 -1.3,-0.42c-0.6,0 -1.07,0.13 -1.42,0.39c-0.35,0.26 -0.58,0.57 -0.7,0.92l-2.29,-0.32c0.18,-0.63 0.48,-1.15 0.9,-1.57c0.41,-0.42 0.92,-0.74 1.51,-0.95c0.6,-0.21 1.26,-0.32 1.99,-0.32c0.5,0 0.99,0.06 1.49,0.17c0.49,0.12 0.94,0.31 1.35,0.58c0.41,0.26 0.74,0.62 0.99,1.08c0.25,0.45 0.38,1.02 0.38,1.7l0,6.89l-2.35,0l0,-1.42l-0.08,0c-0.15,0.29 -0.36,0.56 -0.63,0.81c-0.26,0.24 -0.6,0.44 -1,0.59c-0.41,0.15 -0.88,0.23 -1.41,0.23zm0.63,-1.79c0.49,0 0.91,-0.09 1.27,-0.28c0.36,-0.2 0.64,-0.46 0.83,-0.78c0.2,-0.32 0.3,-0.67 0.3,-1.05l0,-1.21c-0.08,0.06 -0.21,0.12 -0.39,0.17c-0.18,0.05 -0.38,0.1 -0.61,0.14c-0.22,0.04 -0.44,0.08 -0.67,0.11c-0.22,0.03 -0.41,0.06 -0.57,0.08c-0.36,0.05 -0.69,0.13 -0.98,0.24c-0.28,0.11 -0.51,0.27 -0.68,0.47c-0.16,0.19 -0.25,0.45 -0.25,0.76c0,0.45 0.17,0.78 0.49,1.01c0.33,0.23 0.75,0.34 1.26,0.34z" fill="black" id="svg_3"/>
   <path d="m91.13,66.49l0,1.88l-5.96,0l0,-1.88l5.96,0zm-4.49,-2.46l2.44,0l0,9.65c0,0.33 0.05,0.58 0.15,0.75c0.1,0.17 0.24,0.29 0.41,0.35c0.16,0.06 0.35,0.1 0.55,0.1c0.15,0 0.29,-0.02 0.42,-0.04c0.13,-0.02 0.23,-0.04 0.29,-0.06l0.42,1.9c-0.13,0.04 -0.32,0.09 -0.56,0.14c-0.24,0.06 -0.54,0.09 -0.88,0.1c-0.61,0.02 -1.16,-0.08 -1.65,-0.28c-0.49,-0.2 -0.88,-0.52 -1.17,-0.95c-0.28,-0.43 -0.42,-0.96 -0.42,-1.6l0,-10.06z" fill="black" id="svg_4"/>
   <path d="m93.5,76.78l0,-13.72l8.85,0l0,2.09l-6.35,0l0,3.72l5.74,0l0,2.08l-5.74,0l0,5.83l-2.5,0z" fill="black" id="svg_5"/>
   <path d="m106.97,63.06l0,13.72l-2.45,0l0,-13.72l2.45,0z" fill="black" id="svg_6"/>
   <path d="m114,76.98c-1.02,0 -1.89,-0.22 -2.63,-0.66c-0.75,-0.45 -1.32,-1.06 -1.73,-1.86c-0.41,-0.79 -0.61,-1.72 -0.61,-2.78c0,-1.07 0.2,-2 0.61,-2.8c0.41,-0.8 0.98,-1.42 1.73,-1.86c0.74,-0.44 1.61,-0.66 2.63,-0.66c1.01,0 1.89,0.22 2.63,0.66c0.74,0.44 1.31,1.06 1.72,1.86c0.41,0.8 0.61,1.73 0.61,2.8c0,1.06 -0.2,1.99 -0.61,2.78c-0.41,0.8 -0.98,1.41 -1.72,1.86c-0.74,0.44 -1.62,0.66 -2.63,0.66zm0.01,-1.94c0.55,0 1.01,-0.15 1.38,-0.45c0.36,-0.31 0.64,-0.71 0.82,-1.22c0.18,-0.51 0.28,-1.08 0.28,-1.7c0,-0.63 -0.1,-1.2 -0.28,-1.71c-0.18,-0.51 -0.46,-0.92 -0.82,-1.22c-0.37,-0.31 -0.83,-0.46 -1.38,-0.46c-0.56,0 -1.03,0.15 -1.4,0.46c-0.37,0.3 -0.65,0.71 -0.83,1.22c-0.18,0.51 -0.27,1.08 -0.27,1.71c0,0.62 0.09,1.19 0.27,1.7c0.18,0.51 0.46,0.91 0.83,1.22c0.37,0.3 0.84,0.45 1.4,0.45z" fill="black" id="svg_7"/>
   <path d="m122.88,76.78l-2.93,-10.29l2.49,0l1.82,7.23l0.09,0l1.87,-7.23l2.46,0l1.86,7.19l0.1,0l1.8,-7.19l2.49,0l-2.93,10.29l-2.55,0l-1.94,-6.95l-0.14,0l-1.94,6.95l-2.55,0z" fill="black" id="svg_8"/>
   <path clip-rule="evenodd" d="m94.93,82.3c-5.56,17.9 -22.25,30.9 -41.98,30.9c-24.27,0 -43.95,-19.68 -43.95,-43.95c0,-24.27 19.68,-43.95 43.95,-43.95c20.49,0 37.71,14.02 42.58,33l4.12,0c-4.96,-21.21 -23.98,-37 -46.7,-37c-26.48,0 -47.95,21.47 -47.95,47.95c0,26.48 21.47,47.95 47.95,47.95c21.96,0 40.47,-14.76 46.16,-34.9l-4.18,0z" fill="black" fill-rule="evenodd" id="svg_9"/>
   <path clip-rule="evenodd" d="m65.27,82.3c-3.02,2.84 -7.08,4.58 -11.55,4.58c-9.33,0 -16.89,-7.56 -16.89,-16.89c0,-9.32 7.56,-16.88 16.89,-16.88c4.78,0 9.1,1.99 12.17,5.19l5.13,0c-3.75,-5.54 -10.1,-9.19 -17.3,-9.19c-11.54,0 -20.89,9.35 -20.89,20.88c0,11.54 9.35,20.89 20.89,20.89c6.93,0 13.07,-3.38 16.87,-8.58l-5.32,0z" fill="black" fill-rule="evenodd" id="svg_10"/>
  </g>
 </g>
</svg>