<svg width="130" height="96" viewBox="0 0 130 96" fill="none" xmlns="http://www.w3.org/2000/svg">
<path d="M93.9023 47.9511C93.9023 73.3292 73.3292 93.9023 47.9511 93.9023C22.573 93.9023 2 73.3292 2 47.9511C2 22.573 22.573 2 47.9511 2C73.3292 2 93.9023 22.573 93.9023 47.9511Z" fill="#101010" stroke="white" stroke-width="4"/>
<path d="M67.5981 48.6936C67.5981 59.1218 59.1444 67.5755 48.7162 67.5755C38.288 67.5755 29.8342 59.1218 29.8342 48.6936C29.8342 38.2654 38.288 29.8116 48.7162 29.8116C59.1444 29.8116 67.5981 38.2654 67.5981 48.6936Z" stroke="white" stroke-width="4"/>
<rect x="46.4043" y="37.1235" width="66.5128" height="23.2022" fill="#101010"/>
<path d="M46.4043 55.4776V41.7639H51.6934C52.6919 41.7639 53.5217 41.9201 54.1828 42.2326C54.8484 42.5406 55.3454 42.9625 55.6737 43.4982C56.0065 44.0338 56.173 44.641 56.173 45.3195C56.173 45.8775 56.065 46.3552 55.8491 46.7525C55.6333 47.1453 55.3432 47.4645 54.9789 47.71C54.6146 47.9556 54.2075 48.1319 53.7578 48.239V48.373C54.248 48.3997 54.718 48.5493 55.1678 48.8216C55.622 49.0894 55.9931 49.4689 56.2809 49.9599C56.5687 50.451 56.7127 51.0447 56.7127 51.7411C56.7127 52.4509 56.5395 53.0893 56.1932 53.6562C55.8469 54.2187 55.3252 54.6629 54.628 54.9888C53.9309 55.3146 53.0539 55.4776 51.997 55.4776H46.4043ZM48.9072 53.4018H51.599C52.5075 53.4018 53.1619 53.2299 53.5621 52.8862C53.9669 52.538 54.1693 52.0915 54.1693 51.5469C54.1693 51.1407 54.0681 50.7746 53.8657 50.4488C53.6633 50.1184 53.3755 49.8595 53.0022 49.672C52.6289 49.4801 52.1836 49.3841 51.6664 49.3841H48.9072V53.4018ZM48.9072 47.5962H51.3831C51.8148 47.5962 52.2039 47.5181 52.5502 47.3618C52.8965 47.2011 53.1686 46.9757 53.3665 46.6855C53.5689 46.3909 53.6701 46.0427 53.6701 45.6409C53.6701 45.1097 53.4812 44.6722 53.1034 44.3285C52.7301 43.9847 52.1746 43.8129 51.437 43.8129H48.9072V47.5962Z" fill="white"/>
<path d="M63.3696 55.6785C62.3307 55.6785 61.4334 55.4642 60.6778 55.0356C59.9267 54.6026 59.3488 53.991 58.944 53.2009C58.5392 52.4063 58.3368 51.471 58.3368 50.3952C58.3368 49.3372 58.5392 48.4087 58.944 47.6096C59.3533 46.8061 59.9245 46.1811 60.6576 45.7347C61.3907 45.2838 62.2519 45.0584 63.2414 45.0584C63.8801 45.0584 64.4827 45.161 65.0494 45.3664C65.6206 45.5673 66.1243 45.8798 66.5606 46.3038C67.0013 46.7279 67.3477 47.2681 67.5995 47.9243C67.8514 48.5761 67.9773 49.3528 67.9773 50.2546V50.9978H59.4837V49.364H65.6363C65.6318 48.8997 65.5306 48.4868 65.3328 48.1252C65.1349 47.7591 64.8583 47.4712 64.503 47.2614C64.1522 47.0516 63.7429 46.9467 63.2751 46.9467C62.7759 46.9467 62.3374 47.0672 61.9596 47.3083C61.5818 47.5449 61.2872 47.8574 61.0758 48.2457C60.8689 48.6296 60.7633 49.0515 60.7588 49.5113V50.9376C60.7588 51.5358 60.8689 52.0491 61.0893 52.4777C61.3097 52.9018 61.6178 53.2277 62.0136 53.4553C62.4094 53.6785 62.8726 53.7901 63.4033 53.7901C63.7586 53.7901 64.0802 53.741 64.368 53.6428C64.6559 53.5402 64.9055 53.3906 65.1169 53.1942C65.3283 52.9978 65.4879 52.7545 65.5959 52.4643L67.8761 52.7188C67.7322 53.3169 67.4578 53.8392 67.0531 54.2857C66.6528 54.7276 66.1401 55.0713 65.5149 55.3169C64.8898 55.5579 64.1746 55.6785 63.3696 55.6785Z" fill="white"/>
<path d="M73.0252 55.6851C72.3686 55.6851 71.7772 55.5691 71.251 55.337C70.7292 55.1004 70.3155 54.7522 70.0096 54.2924C69.7083 53.8325 69.5576 53.2656 69.5576 52.5915C69.5576 52.0112 69.6656 51.5313 69.8815 51.1519C70.0973 50.7724 70.3919 50.4688 70.7652 50.2412C71.1385 50.0135 71.559 49.8416 72.0268 49.7256C72.499 49.605 72.987 49.518 73.4907 49.4644C74.0979 49.4019 74.5904 49.3461 74.9682 49.297C75.346 49.2435 75.6203 49.1631 75.7912 49.056C75.9666 48.9444 76.0543 48.7725 76.0543 48.5404V48.5002C76.0543 47.9957 75.9037 47.6051 75.6023 47.3284C75.301 47.0516 74.867 46.9132 74.3003 46.9132C73.7021 46.9132 73.2276 47.0427 72.8768 47.3016C72.5305 47.5605 72.2966 47.8663 72.1752 48.2189L69.8949 47.8975C70.0749 47.2726 70.3717 46.7503 70.7855 46.3306C71.1992 45.9065 71.7052 45.5896 72.3034 45.3798C72.9016 45.1655 73.5627 45.0584 74.2868 45.0584C74.786 45.0584 75.283 45.1164 75.7777 45.2325C76.2725 45.3485 76.7245 45.5405 77.1337 45.8083C77.543 46.0717 77.8713 46.4311 78.1187 46.8864C78.3706 47.3417 78.4965 47.9109 78.4965 48.5939V55.4776H76.1488V54.0647H76.0678C75.9194 54.3504 75.7103 54.6182 75.4404 54.8682C75.1751 55.1137 74.84 55.3124 74.4352 55.4642C74.0349 55.6115 73.5649 55.6851 73.0252 55.6851ZM73.6594 53.904C74.1496 53.904 74.5746 53.808 74.9344 53.616C75.2942 53.4196 75.5708 53.1607 75.7642 52.8393C75.9621 52.5179 76.0611 52.1674 76.0611 51.788V50.576C75.9846 50.6385 75.8542 50.6965 75.6698 50.7501C75.4899 50.8037 75.2875 50.8505 75.0626 50.8907C74.8377 50.9309 74.6151 50.9666 74.3947 50.9978C74.1744 51.0291 73.9832 51.0559 73.8213 51.0782C73.457 51.1273 73.1309 51.2077 72.8431 51.3193C72.5552 51.4309 72.3281 51.5871 72.1617 51.788C71.9953 51.9844 71.9121 52.2389 71.9121 52.5514C71.9121 52.9978 72.0763 53.3348 72.4046 53.5625C72.7329 53.7901 73.1512 53.904 73.6594 53.904Z" fill="white"/>
<path d="M86.1266 45.1923V47.0672H80.1696V45.1923H86.1266ZM81.6403 42.7281H84.0824V52.3839C84.0824 52.7098 84.1319 52.9598 84.2309 53.1339C84.3343 53.3036 84.4692 53.4196 84.6356 53.4821C84.8021 53.5446 84.9864 53.5759 85.1888 53.5759C85.3418 53.5759 85.4812 53.5647 85.6071 53.5424C85.7375 53.5201 85.8365 53.5 85.9039 53.4821L86.3155 55.3771C86.185 55.4218 85.9984 55.4709 85.7555 55.5244C85.5172 55.578 85.2248 55.6093 84.8785 55.6182C84.2668 55.636 83.7159 55.5445 83.2257 55.3436C82.7354 55.1383 82.3464 54.8213 82.0585 54.3928C81.7752 53.9642 81.6358 53.4285 81.6403 52.7857V42.7281Z" fill="white"/>
<path d="M88.4996 55.4776V41.7639H97.3507V43.8464H91.0025V47.5694H96.7436V49.6519H91.0025V55.4776H88.4996Z" fill="white"/>
<path d="M101.965 41.7639V55.4776H99.5231V41.7639H101.965Z" fill="white"/>
<path d="M108.997 55.6785C107.985 55.6785 107.108 55.4575 106.366 55.0155C105.623 54.5736 105.048 53.9553 104.638 53.1607C104.234 52.3661 104.031 51.4376 104.031 50.3751C104.031 49.3126 104.234 48.3819 104.638 47.5828C105.048 46.7837 105.623 46.1632 106.366 45.7213C107.108 45.2793 107.985 45.0584 108.997 45.0584C110.009 45.0584 110.886 45.2793 111.628 45.7213C112.37 46.1632 112.943 46.7837 113.348 47.5828C113.757 48.3819 113.962 49.3126 113.962 50.3751C113.962 51.4376 113.757 52.3661 113.348 53.1607C112.943 53.9553 112.37 54.5736 111.628 55.0155C110.886 55.4575 110.009 55.6785 108.997 55.6785ZM109.01 53.7366C109.559 53.7366 110.018 53.587 110.386 53.2879C110.755 52.9844 111.029 52.5781 111.209 52.0692C111.394 51.5603 111.486 50.9934 111.486 50.3684C111.486 49.739 111.394 49.1698 111.209 48.6609C111.029 48.1475 110.755 47.7391 110.386 47.4355C110.018 47.1319 109.559 46.9802 109.01 46.9802C108.448 46.9802 107.98 47.1319 107.607 47.4355C107.238 47.7391 106.961 48.1475 106.777 48.6609C106.597 49.1698 106.507 49.739 106.507 50.3684C106.507 50.9934 106.597 51.5603 106.777 52.0692C106.961 52.5781 107.238 52.9844 107.607 53.2879C107.98 53.587 108.448 53.7366 109.01 53.7366Z" fill="white"/>
<path d="M117.876 55.4776L114.949 45.1923H117.438L119.259 52.4241H119.354L121.216 45.1923H123.678L125.54 52.3839H125.641L127.436 45.1923H129.932L126.997 55.4776H124.454L122.511 48.527H122.369L120.427 55.4776H117.876Z" fill="white"/>
</svg>
