<svg width="174" height="168" viewBox="0 0 174 168" fill="none" xmlns="http://www.w3.org/2000/svg">
<path d="M152.801 0.395855L37.4758 30.5831L53.5246 105.382C48.146 101.701 41.6558 99.5179 34.6484 99.4532C15.8594 99.2798 0.487503 114.371 0.314103 133.16C0.140703 151.948 15.2314 167.32 34.0204 167.494C52.8094 167.667 68.1812 152.576 68.3546 133.788C68.4149 127.257 66.5985 121.161 63.4563 115.95L50.7323 56.647L150.261 26.362L158.931 70.5296C153.517 66.7736 146.961 64.5429 139.876 64.4775C121.087 64.3041 105.715 79.395 105.542 98.1839C105.368 116.973 120.459 132.345 139.248 132.518C158.037 132.691 173.409 117.601 173.582 98.8118C173.643 92.2117 171.789 86.0538 168.584 80.8077L152.801 0.395855Z" fill="#101010"/>
</svg>
