<svg width="72" height="72" viewBox="0 0 72 72" fill="none" xmlns="http://www.w3.org/2000/svg">
<path d="M0.0858754 10.8561L14.9338 57.9052L45.5222 49.7342C44.1109 52.0331 43.342 54.7607 43.4593 57.6586C43.7738 65.4286 50.3275 71.4724 58.0974 71.1579C65.8674 70.8435 71.9112 64.2898 71.5968 56.5199C71.2823 48.7499 64.7286 42.7061 56.9587 43.0205C54.2581 43.1298 51.7755 44.0059 49.6864 45.4118L25.4349 51.89L10.8711 11.3722L28.9497 6.88102C27.5083 9.19577 26.721 11.9516 26.8396 14.8816C27.1541 22.6515 33.7078 28.6955 41.4777 28.381C49.2476 28.0665 55.2915 21.5128 54.977 13.7429C54.6626 5.97296 48.1089 -0.0708891 40.339 0.243563C37.6096 0.354024 35.1023 1.24681 32.9997 2.67936L0.0858754 10.8561Z" fill="#101010"/>
</svg>
