<svg width="384" height="271" viewBox="0 0 384 271" fill="none" xmlns="http://www.w3.org/2000/svg">
<g clip-path="url(#clip0_34_56)">
<path d="M27.7419 245.024C27.7419 245.024 -66.9737 277.646 -85.1384 307.759C-103.303 337.872 27.7419 245.024 27.7419 245.024Z" fill="white"/>
<path d="M-135.909 349.443C-136.568 349.493 -137.23 349.4 -137.85 349.171C-138.47 348.942 -139.033 348.583 -139.502 348.118C-142.449 345.463 -140.041 340.445 -137.974 336.9C-110.264 289.399 29.0656 239.342 34.982 237.235L47.7237 232.697L36.8132 240.69C36.4099 240.986 -4.12314 270.655 -45.6172 298.607C-110.127 342.064 -129.279 349.443 -135.909 349.443ZM22.5992 246.113C-13.9858 260.274 -112.579 301.21 -134.558 338.892C-137.486 343.909 -136.866 345.169 -136.859 345.18C-136.266 345.818 -128.779 349.828 -48.3072 295.654C-20.2553 276.769 7.42027 257.048 22.5992 246.113Z" fill="white"/>
<path d="M25.689 212.44C25.689 212.44 -61.5952 203.468 -88.0738 218.801C-114.552 234.133 25.689 212.44 25.689 212.44Z" fill="white"/>
<path d="M-93.2517 227.105C-123.804 227.105 -125.902 222.207 -126.863 219.968C-128.783 215.487 -123.44 211.268 -121.684 209.882C-83.7982 179.97 31.2749 210.198 36.1551 211.499L45.5141 213.995L35.9255 215.364C35.5395 215.419 -3.01566 220.903 -41.924 224.336C-64.6152 226.338 -81.1622 227.105 -93.2517 227.105ZM-66.4773 200.746C-87.9972 200.746 -107.684 203.864 -119.233 212.983C-122.718 215.733 -123.583 217.59 -123.229 218.41C-122.344 220.475 -113.89 226.719 -42.2714 220.399C-15.5838 218.044 10.936 214.722 25.0208 212.859C6.97435 208.705 -32.0922 200.746 -66.4773 200.746Z" fill="white"/>
<path d="M50.6679 197.068C50.6679 197.068 6.7644 91.6496 17.4018 81.2149C28.0391 70.7803 50.6679 197.068 50.6679 197.068Z" fill="white"/>
<path d="M53.096 206.341L47.6369 192.392C47.5037 192.05 34.1464 157.834 23.1395 122.608C0.467568 50.059 9.76096 43.8638 12.8137 41.8279C13.5671 41.2879 14.4525 40.9616 15.3761 40.8837C16.2998 40.8057 17.2273 40.979 18.0606 41.3851C35.1846 49.3643 49.829 176.934 51.4422 191.454L53.096 206.341ZM15.8202 44.8199C15.5251 44.8343 15.2412 44.9376 15.0058 45.1161C4.09538 52.3901 26.2135 124.004 45.657 176.127C38.988 122.382 26.7075 49.7744 16.3914 44.9666C16.2142 44.8759 16.0191 44.8258 15.8202 44.8199Z" fill="white"/>
<path d="M67.2617 220.249C67.2617 220.249 90.8262 113.695 115.513 113.695C140.199 113.695 67.2617 220.249 67.2617 220.249Z" fill="white"/>
<path d="M61.0442 227.602L63.3752 218.829C65.0869 212.395 105.774 61.256 150.254 61.256C156.352 61.256 158.982 64.1168 160.116 66.5164C171.976 91.6341 77.6106 207.467 66.812 220.591L61.0442 227.602ZM150.254 65.208C114.751 65.208 79.4611 177.417 69.7837 210.674C101.626 171.112 165.093 86.314 156.543 68.2039C156.191 67.4629 155.128 65.208 150.254 65.208Z" fill="white"/>
<path d="M81.0938 221.312C81.0938 221.312 162.11 170.116 328.094 185.744C494.078 201.372 81.0938 221.312 81.0938 221.312Z" fill="white"/>
<path d="M75.5671 223.447L79.8086 219.812C80.6673 219.076 101.321 201.618 142.703 187.578C180.783 174.656 244.262 162.484 330.417 177.871C366.817 184.371 371.543 189.215 371.226 193.48C370.914 197.695 370.18 207.565 224.747 216.716C153.679 221.187 81.8675 223.267 81.1497 223.287L75.5671 223.447ZM252.226 174.636C158.644 174.636 103.318 207.887 87.2765 219.144C106.267 218.536 165.645 216.474 224.508 212.77C359.648 204.267 367.153 194.966 367.284 193.188C367.299 192.998 367.199 188.453 329.723 181.761C304.151 177.104 278.218 174.72 252.226 174.636Z" fill="white"/>
<path d="M132.47 227.316C132.47 227.316 274.381 225.422 282.354 240.575C290.326 255.728 132.47 227.316 132.47 227.316Z" fill="white"/>
<path d="M300.526 266.036C255.229 266.036 146.348 233.511 131.897 229.131L120.054 225.543L132.425 225.265C150.578 224.859 310.067 222.206 320.099 254.315C321.288 258.118 319.91 260.558 318.544 261.936C315.688 264.816 309.299 266.036 300.526 266.036ZM145.414 229.036C211.979 248.545 304.407 270.588 315.738 259.153C316.352 258.534 316.973 257.558 316.329 255.494C309.2 232.682 200.424 228.662 145.414 229.036Z" fill="white"/>
<path d="M104.806 243.048C104.806 243.048 190.521 282.666 173.772 294.856C157.023 307.046 104.806 243.048 104.806 243.048Z" fill="white"/>
<path d="M227.179 342.789C185.716 342.789 101.292 243.059 97.3649 238.392L91.8074 231.785L99.6863 235.317C105.435 237.894 240.515 298.782 243.471 329.281C243.863 333.326 242.088 336.863 238.338 339.51C235.056 341.75 231.151 342.897 227.179 342.789ZM106.209 242.635C138.809 280.037 211.342 353.734 236.057 336.282C238.689 334.425 239.795 332.321 239.539 329.662C237.412 307.734 149.14 262.519 106.209 242.635Z" fill="white"/>
<path d="M114.686 266.76C114.686 266.76 262.886 428.792 249.054 438.672C235.222 448.552 114.686 266.76 114.686 266.76Z" fill="white"/>
<path d="M87.0217 254.904C87.0217 254.904 149.418 358.824 136.684 368.927C123.95 379.031 87.0217 254.904 87.0217 254.904Z" fill="white"/>
<path d="M157.646 407.855C156.868 407.85 156.095 407.72 155.358 407.471C132.483 399.957 86.3791 264.974 81.1979 249.607L76.5898 235.941L84.7042 247.865C84.9454 248.221 109.198 283.917 130.72 320.846C170.506 389.116 167.208 402.541 161.267 406.699C160.21 407.453 158.944 407.857 157.646 407.855ZM89.9684 262.901C106.786 310.639 140.642 398.478 156.591 403.718C156.982 403.882 157.408 403.945 157.829 403.9C158.251 403.856 158.654 403.704 159.001 403.461C162.266 401.176 165.714 388.746 127.314 322.851C113.69 299.473 98.9627 276.583 89.9684 262.901Z" fill="white"/>
<path d="M60.6247 250.952C60.6247 250.952 4.46796 416.655 38.9278 414.947C73.3876 413.239 60.6247 250.952 60.6247 250.952Z" fill="white"/>
<path d="M24.9496 442.64C18.9019 442.64 14.2514 440.276 11.1176 435.606C-11.1144 402.471 54.744 256.341 57.5574 250.136L60.562 243.514L61.3223 250.746C61.9455 256.663 76.2079 396.112 43.8991 433.366C38.7912 439.253 32.7146 442.368 25.8391 442.622C25.54 442.634 25.2428 442.64 24.9496 442.64ZM58.0862 258.732C45.0665 288.669 -3.98613 406.003 14.3999 433.404C16.9047 437.14 20.5981 438.871 25.6925 438.674C31.5124 438.458 36.491 435.874 40.9139 430.776C67.9218 399.635 60.6256 288.82 58.0862 258.732Z" fill="white"/>
<path d="M41.2286 259.189C41.2286 259.189 -53.036 367.004 -44.4091 378.359C-35.7821 389.715 41.2286 259.189 41.2286 259.189Z" fill="white"/>
<path d="M-72.7681 417.664C-74.0163 417.684 -75.2346 417.281 -76.2241 416.519C-76.8959 415.973 -77.4435 415.29 -77.8301 414.515C-78.2168 413.741 -78.4337 412.892 -78.4664 412.027C-80.8341 385.243 44.6438 245.677 49.9852 239.749L62.6169 225.734L53.1634 242.062C49.1342 249.021 -45.7949 412.538 -71.3574 417.521C-71.822 417.614 -72.2944 417.661 -72.7681 417.664ZM39.592 257.373C-1.98128 304.589 -76.1739 393.085 -74.5298 411.68C-74.5443 412.003 -74.4859 412.326 -74.359 412.624C-74.2321 412.922 -74.0399 413.187 -73.7966 413.401C-73.5533 413.567 -73.2751 413.676 -72.9833 413.718C-72.6915 413.759 -72.3941 413.734 -72.1139 413.642C-54.4476 410.2 7.26582 311.776 39.592 257.373Z" fill="white"/>
<path d="M12.9356 186.589C12.9356 186.589 -69.2471 89.5124 -145.243 98.9204C-221.24 108.328 12.9356 186.589 12.9356 186.589Z" fill="white"/>
<path d="M23.89 191.125L17.4217 189.647C16.9026 189.528 -35.0388 177.615 -86.3917 162.418C-191.548 131.299 -191.888 116.989 -191.998 112.288C-192.133 106.614 -186.357 102.226 -174.341 98.8724C-129.748 86.4249 -79.3965 110.944 -45.021 133.709C-21.9368 149.138 -0.401291 166.767 19.2839 186.348L23.89 191.125ZM-148.821 99.4465C-157.083 99.4047 -165.312 100.493 -173.28 102.68C-182.886 105.36 -188.129 108.739 -188.048 112.194C-187.598 131.166 -70.9793 164.996 11.4917 184.222C-8.00389 165.52 -81.6582 99.4465 -148.821 99.4465Z" fill="white"/>
<path d="M76.4819 126.278C76.4819 126.278 103.597 12.3392 91.3075 11.9212C79.0184 11.5032 76.4819 126.278 76.4819 126.278Z" fill="white"/>
<path d="M71.4356 151.505L71.2137 136.373C71.1423 131.513 69.6352 17.1655 84.5015 2.07732C85.0695 1.44248 85.7614 0.930657 86.5347 0.573395C87.3079 0.216133 88.1461 0.0209903 88.9977 0C89.8241 0.0033738 90.6381 0.201427 91.3736 0.578094C92.1092 0.954762 92.7457 1.49945 93.2314 2.16801C104.671 16.8201 78.1664 124.584 75.1059 136.824L71.4356 151.505ZM88.9977 3.952C88.8009 3.952 88.2027 3.952 87.3169 4.85124C77.4987 14.8162 75.2197 81.1077 75.0866 120.094C85.97 73.6388 97.0618 13.4943 90.1169 4.60038C90.0007 4.40619 89.837 4.24478 89.6412 4.13135C89.4454 4.01791 89.2239 3.95619 88.9977 3.952Z" fill="white"/>
<path d="M201.63 142.272C201.63 142.272 213.486 112.632 225.342 120.536C237.198 128.44 201.63 142.272 201.63 142.272Z" fill="white"/>
</g>
<defs>
<clipPath id="clip0_34_56">
<rect width="576" height="520" fill="white" transform="translate(-192)"/>
</clipPath>
</defs>
</svg>
