<svg width="63" height="84" viewBox="0 0 63 84" fill="none" xmlns="http://www.w3.org/2000/svg">
<path d="M35.6725 0.749535L0.714759 33.0208L20.4022 56.3567C17.8169 56.0691 15.1212 56.518 12.6408 57.81C5.99011 61.2743 3.40706 69.474 6.8713 76.1247C10.3355 82.7754 18.5353 85.3585 25.186 81.8942C31.8367 78.4299 34.4198 70.2302 30.9555 63.5795C29.7514 61.2679 27.9678 59.4614 25.8834 58.2157L10.2745 39.7143L39.6499 10.3723L50.9907 24.3031C48.3792 23.9958 45.6513 24.4402 43.1434 25.7465C36.4928 29.2108 33.9096 37.4106 37.3739 44.0613C40.8381 50.7119 49.0379 53.295 55.6886 49.8308C62.3392 46.3665 64.9223 38.1668 61.4581 31.5161C60.2412 29.1799 58.4328 27.3587 56.3196 26.1121L35.6725 0.749535Z" fill="#101010"/>
</svg>
