<svg width="155" height="149" viewBox="0 0 155 149" fill="none" xmlns="http://www.w3.org/2000/svg">
<path d="M135.73 0.239911L33.2891 27.0546L47.545 93.4974C42.7673 90.2271 37.0021 88.2881 30.7776 88.2307C14.0877 88.0767 0.433115 101.482 0.279087 118.171C0.125059 134.861 13.5299 148.516 30.2198 148.67C46.9097 148.824 60.5642 135.419 60.7182 118.729C60.7717 112.928 59.1583 107.513 56.3671 102.885L45.0646 50.2068L133.474 23.3051L141.175 62.5384C136.367 59.202 130.543 57.2205 124.249 57.1624C107.559 57.0084 93.9047 70.4134 93.7506 87.1032C93.5966 103.793 107.002 117.448 123.691 117.602C140.381 117.756 154.036 104.351 154.19 87.6609C154.244 81.7981 152.597 76.3283 149.75 71.6682L135.73 0.239911Z" fill="white"/>
</svg>
