<svg width="104" height="78" viewBox="0 0 104 78" fill="none" xmlns="http://www.w3.org/2000/svg">
<path d="M103.493 44.8003L64.3077 0.0720241L34.5098 23.9121C34.9533 20.6911 34.4801 17.3084 32.9464 14.1671C28.8342 5.74459 18.6728 2.25046 10.2503 6.36265C1.8278 10.4748 -1.66641 20.6362 2.44581 29.0587C6.55803 37.4813 16.7194 40.9754 25.1419 36.8632C28.0693 35.4339 30.3846 33.2641 32.0088 30.7002L55.6335 11.799L91.3402 49.4571L73.5651 63.1741C74.0341 59.9211 73.5675 56.4982 72.0168 53.3221C67.9046 44.8996 57.7432 41.4054 49.3207 45.5176C40.8982 49.6298 37.4041 59.7912 41.5162 68.2137C45.6284 76.6362 55.7898 80.1304 64.2123 76.0182C67.171 74.5737 69.5053 72.3734 71.1316 69.7736L103.493 44.8003Z" fill="white"/>
</svg>
