<svg width="444" height="434" viewBox="0 0 444 434" fill="none" xmlns="http://www.w3.org/2000/svg">
<g clip-path="url(#clip0_111_483)">
<path d="M137.233 406.302L137.709 395.61C142.664 392.961 148.192 391.561 153.811 391.533C146.077 397.858 147.044 410.049 141.801 418.553C140.145 421.193 137.917 423.426 135.281 425.088C132.645 426.749 129.669 427.796 126.574 428.151L120.102 432.114C119.214 427.163 119.41 422.077 120.676 417.208C121.942 412.34 124.248 407.803 127.436 403.912C129.246 401.747 131.321 399.818 133.613 398.171C135.163 402.259 137.233 406.302 137.233 406.302Z" fill="#F2F2F2"/>
<path d="M404.741 250.522C422.189 237.229 430.523 214.892 425.306 193.584C425.176 193.054 425.039 192.526 424.895 191.999C421.436 179.351 412.879 167.33 400.408 163.288C389.936 159.895 378.505 162.504 367.58 161.155C346.134 158.506 329.508 141.149 317.809 122.977C306.11 104.805 297.119 84.4638 281.573 69.4508C255.949 44.7046 214.15 39.3767 182.38 55.4846C150.61 71.5927 130.373 107.33 131.236 142.946C132.099 178.562 153.238 212.614 183.937 230.681C195.215 237.318 208.258 242.019 221.239 240.374C232.503 238.946 242.737 232.893 253.948 231.096C271.573 228.27 289.086 236.241 304.331 245.53C319.575 254.818 334.301 265.828 351.624 270.134C368.445 274.315 389.285 262.297 404.741 250.522Z" fill="#F2F2F2"/>
<path d="M266.684 121.462H92.861C89.2359 121.466 85.7604 122.909 83.197 125.473C80.6337 128.037 79.1917 131.513 79.1875 135.139V221.67C79.1917 225.296 80.6337 228.772 83.197 231.336C85.7604 233.9 89.2359 235.342 92.861 235.347H266.684C270.309 235.344 273.785 233.902 276.349 231.338C278.913 228.773 280.354 225.296 280.357 221.67V135.139C280.354 131.512 278.913 128.036 276.349 125.471C273.785 122.907 270.309 121.465 266.684 121.462Z" fill="white"/>
<path d="M266.684 236.021H92.864C89.0606 236.017 85.4141 234.503 82.7247 231.813C80.0352 229.123 78.5224 225.476 78.5181 221.672V135.138C78.5224 131.333 80.0352 127.686 82.7247 124.996C85.4141 122.306 89.0606 120.793 92.864 120.788H266.684C270.488 120.793 274.134 122.306 276.824 124.996C279.513 127.686 281.026 131.333 281.03 135.138V221.672C281.026 225.476 279.513 229.123 276.824 231.813C274.134 234.503 270.488 236.017 266.684 236.021ZM92.864 122.133C89.417 122.137 86.1124 123.509 83.675 125.947C81.2376 128.384 79.8665 131.69 79.8626 135.138V221.672C79.8665 225.119 81.2376 228.425 83.675 230.863C86.1124 233.301 89.417 234.672 92.864 234.676H266.684C270.131 234.672 273.436 233.301 275.873 230.863C278.311 228.425 279.682 225.119 279.686 221.672V135.138C279.682 131.69 278.311 128.384 275.873 125.947C273.436 123.509 270.131 122.137 266.684 122.133H92.864Z" fill="#CCCCCC"/>
<path d="M264.68 232.943H98.1051C96.6653 232.943 95.2845 232.37 94.2664 231.352C93.2482 230.334 92.6763 228.953 92.6763 227.512C92.6763 226.072 93.2482 224.691 94.2664 223.673C95.2845 222.654 96.6653 222.082 98.1051 222.082H264.68C266.12 222.082 267.501 222.654 268.519 223.673C269.537 224.691 270.109 226.072 270.109 227.512C270.109 228.953 269.537 230.334 268.519 231.352C267.501 232.37 266.12 232.943 264.68 232.943Z" fill="#A7A7A7"/>
<path d="M207.936 126.418L140.057 144.186L149.503 188.212C146.338 186.045 142.518 184.76 138.393 184.722C127.334 184.62 118.286 193.502 118.184 204.561C118.082 215.62 126.965 224.668 138.023 224.77C149.082 224.872 158.13 215.99 158.232 204.931C158.268 201.087 157.199 197.499 155.349 194.432L147.86 159.527L206.441 141.701L211.544 167.698C208.358 165.487 204.499 164.174 200.329 164.136C189.27 164.034 180.222 172.916 180.12 183.975C180.018 195.034 188.9 204.082 199.959 204.184C211.018 204.286 220.066 195.403 220.168 184.345C220.204 180.46 219.113 176.835 217.226 173.748L207.936 126.418Z" fill="#F2F2F2"/>
<path d="M430.474 154.085H357.837C356.322 154.083 354.869 153.481 353.798 152.409C352.727 151.338 352.124 149.885 352.123 148.37V112.208C352.124 110.693 352.727 109.24 353.798 108.169C354.869 107.097 356.322 106.494 357.837 106.493H430.474C431.989 106.494 433.442 107.097 434.513 108.169C435.584 109.24 436.187 110.693 436.188 112.208V148.37C436.187 149.885 435.584 151.338 434.513 152.409C433.442 153.481 431.989 154.083 430.474 154.085Z" fill="white"/>
<path d="M430.474 154.757H357.837C356.143 154.756 354.52 154.082 353.323 152.884C352.126 151.687 351.452 150.063 351.45 148.37V112.208C351.452 110.514 352.126 108.891 353.323 107.693C354.52 106.496 356.143 105.822 357.837 105.82H430.474C432.167 105.822 433.791 106.496 434.988 107.693C436.185 108.891 436.859 110.514 436.861 112.208V148.37C436.859 150.063 436.185 151.687 434.988 152.884C433.791 154.082 432.167 154.756 430.474 154.757ZM357.837 107.165C356.5 107.167 355.218 107.698 354.273 108.644C353.328 109.589 352.796 110.871 352.795 112.208V148.37C352.796 149.707 353.328 150.989 354.273 151.934C355.218 152.879 356.5 153.411 357.837 153.413H430.474C431.811 153.411 433.093 152.879 434.038 151.934C434.983 150.989 435.515 149.707 435.516 148.37V112.208C435.515 110.871 434.983 109.589 434.038 108.644C433.093 107.698 431.811 107.167 430.474 107.165H357.837Z" fill="#CCCCCC"/>
<path d="M418.541 171.78H369.609C368.17 171.778 366.791 171.206 365.774 170.187C364.757 169.169 364.186 167.789 364.186 166.35C364.186 164.911 364.757 163.53 365.774 162.512C366.791 161.494 368.17 160.921 369.609 160.92H418.541C419.981 160.92 421.361 161.492 422.38 162.51C423.398 163.529 423.97 164.91 423.97 166.35C423.97 167.79 423.398 169.171 422.38 170.19C421.361 171.208 419.981 171.78 418.541 171.78Z" fill="#E6E6E6"/>
<path d="M384.089 309.649H311.451C309.936 309.647 308.484 309.045 307.413 307.973C306.342 306.902 305.739 305.449 305.737 303.934V267.772C305.739 266.257 306.342 264.804 307.413 263.733C308.484 262.661 309.936 262.058 311.451 262.057H384.089C385.604 262.058 387.057 262.661 388.128 263.733C389.199 264.804 389.802 266.257 389.803 267.772V303.934C389.802 305.449 389.199 306.902 388.128 307.973C387.056 309.045 385.604 309.647 384.089 309.649Z" fill="white"/>
<path d="M384.089 310.321H311.451C309.758 310.32 308.135 309.646 306.938 308.448C305.74 307.251 305.067 305.627 305.065 303.934V267.772C305.067 266.079 305.74 264.455 306.938 263.257C308.135 262.06 309.758 261.386 311.451 261.384H384.089C385.782 261.386 387.405 262.06 388.603 263.257C389.8 264.455 390.473 266.079 390.475 267.772V303.934C390.473 305.627 389.8 307.251 388.603 308.448C387.405 309.646 385.782 310.32 384.089 310.321ZM311.451 262.729C310.115 262.731 308.833 263.262 307.888 264.208C306.943 265.153 306.411 266.435 306.409 267.772V303.934C306.411 305.271 306.943 306.553 307.888 307.498C308.833 308.443 310.115 308.975 311.451 308.977H384.089C385.426 308.975 386.707 308.443 387.653 307.498C388.598 306.553 389.129 305.271 389.131 303.934V267.772C389.129 266.435 388.598 265.153 387.653 264.208C386.707 263.262 385.426 262.731 384.089 262.729H311.451Z" fill="#CCCCCC"/>
<path d="M372.156 327.441H323.224C321.785 327.439 320.406 326.866 319.389 325.848C318.372 324.83 317.801 323.45 317.801 322.011C317.801 320.571 318.372 319.191 319.389 318.173C320.406 317.155 321.785 316.582 323.224 316.58H372.156C373.596 316.58 374.977 317.153 375.995 318.171C377.013 319.189 377.585 320.57 377.585 322.011C377.585 323.451 377.013 324.832 375.995 325.85C374.977 326.869 373.596 327.441 372.156 327.441Z" fill="#E6E6E6"/>
<path d="M137.435 184.539L100.257 184.789C100.257 184.789 79.0827 177.961 69.4801 179.388L65.8086 193.814L92.1839 202.555L138.087 195.893C139.118 196.414 140.267 196.654 141.419 196.589C142.571 196.524 143.686 196.156 144.652 195.523C145.617 194.89 146.399 194.014 146.918 192.983C147.437 191.952 147.675 190.802 147.609 189.65C147.543 188.497 147.174 187.383 146.54 186.418C145.906 185.453 145.03 184.672 143.998 184.154C142.967 183.636 141.817 183.399 140.665 183.466C139.513 183.534 138.398 183.904 137.435 184.539Z" fill="#A0616A"/>
<path d="M91.8694 203.952L47.7608 191.263L43.7452 176.297C42.6991 174.3 42.2321 172.051 42.3972 169.802C42.5622 167.554 43.3527 165.397 44.6792 163.574C48.4448 158.473 51.3881 163.54 56.7322 166.951C66.1004 167.614 89.4837 175.617 98.9758 184.883L98.2279 190.579L91.8694 203.952Z" fill="#101010"/>
<path d="M99.4779 424.345L108.862 424.344L113.326 388.142L99.4766 388.143L99.4779 424.345Z" fill="#A0616A"/>
<path d="M97.084 421.28L99.7252 421.28L110.037 417.086L115.564 421.279H115.564C118.688 421.28 121.683 422.521 123.891 424.73C126.1 426.939 127.341 429.935 127.341 433.059V433.441L97.0846 433.443L97.084 421.28Z" fill="#101010"/>
<path d="M32.6562 415.509L41.5447 418.519L57.3815 385.662L44.2639 381.219L32.6562 415.509Z" fill="#A0616A"/>
<path d="M31.3717 411.838L33.8734 412.685L44.9853 412.021L48.8752 417.766L48.8759 417.766C51.8342 418.768 54.2732 420.905 55.6567 423.706C57.0402 426.506 57.2547 429.742 56.2532 432.701L56.1304 433.064L27.4722 423.358L31.3717 411.838Z" fill="#101010"/>
<path d="M43.5331 268.41C43.5331 268.41 42.4374 281.561 45.1767 294.164C47.9159 306.768 53.811 348.605 53.811 348.605C41.8707 368.235 34.9507 387.551 33.6436 407.104L50.4497 408.449L74.5138 351.339L76.9519 294.164L94.4831 333.071L93.5816 336.076C93.3684 336.787 93.3945 337.548 93.656 338.243C93.9175 338.937 94.3998 339.527 95.0288 339.92C95.0288 339.92 93.3874 350.606 94.4831 350.606C95.5788 350.606 98.318 352.25 98.318 352.25C91.4882 373.516 90.5713 393.883 96.8348 413.155L111.624 412.483L121.328 328.687L114.206 283.205L113.658 274.437L111.192 274.539L109.937 270.875L107.631 264.574L43.5331 268.41Z" fill="#595959"/>
<path d="M42.5861 271.172L42.4885 271.035C37.2738 263.732 45.1167 246.185 46.2996 243.641L41.3174 242.024L36.9608 205.15L33.7746 192.411C32.574 187.595 32.6764 182.547 34.071 177.784C35.4657 173.021 38.1024 168.715 41.7106 165.308L49.0755 158.362L58.0262 145.115H72.4602L77.4093 154.466C82.2075 155.575 86.4647 158.333 89.4391 162.258C92.4136 166.184 93.9168 171.03 93.687 175.95L92.5653 200.473L96.9564 231.007L96.9591 236.533L104.582 249.034L106.243 256.785C106.93 257.692 111.466 263.742 111.466 265.396C111.466 265.644 111.283 265.884 110.89 266.15C107.799 268.244 90.7126 272.512 83.1505 269.486C75.0954 266.264 43.0752 271.097 42.7525 271.146L42.5861 271.172Z" fill="#101010"/>
<path d="M190.024 433.2C190.024 433.305 190.004 433.408 189.964 433.505C189.924 433.602 189.866 433.69 189.792 433.765C189.718 433.839 189.63 433.898 189.534 433.938C189.437 433.979 189.333 434 189.229 434H0.799975C0.587809 434 0.38433 433.916 0.234306 433.766C0.0842815 433.616 0 433.412 0 433.2C0 432.988 0.0842815 432.784 0.234306 432.634C0.38433 432.484 0.587809 432.4 0.799975 432.4H189.224C189.436 432.399 189.639 432.482 189.789 432.632C189.939 432.781 190.023 432.983 190.024 433.195V433.2Z" fill="#CCCCCC"/>
<path d="M67.1077 140.839C77.6652 140.839 86.2237 132.279 86.2237 121.719C86.2237 111.159 77.6652 102.598 67.1077 102.598C56.5502 102.598 47.9917 111.159 47.9917 121.719C47.9917 132.279 56.5502 140.839 67.1077 140.839Z" fill="#A0616A"/>
<path d="M209.235 117.822L141.356 135.589L150.802 179.615C147.637 177.449 143.816 176.164 139.692 176.126C128.633 176.024 119.585 184.906 119.483 195.965C119.381 207.024 128.263 216.072 139.322 216.174C150.381 216.276 159.429 207.393 159.531 196.334C159.567 192.491 158.497 188.902 156.648 185.836L149.159 150.93L207.74 133.105L212.843 159.102C209.657 156.891 205.798 155.578 201.628 155.539C190.569 155.437 181.521 164.32 181.419 175.379C181.317 186.437 190.199 195.485 201.258 195.587C212.317 195.689 221.365 186.807 221.467 175.748C221.503 171.863 220.412 168.239 218.525 165.151L209.235 117.822Z" fill="#101010"/>
<path d="M360.469 271.242L340.492 276.471L343.272 289.428C342.34 288.79 341.216 288.412 340.002 288.401C336.747 288.371 334.085 290.985 334.055 294.24C334.025 297.495 336.639 300.157 339.893 300.188C343.148 300.218 345.811 297.603 345.841 294.349C345.851 293.217 345.537 292.161 344.992 291.259L342.788 280.986L360.029 275.74L361.531 283.391C360.593 282.74 359.458 282.354 358.23 282.342C354.976 282.312 352.313 284.927 352.283 288.181C352.253 291.436 354.867 294.099 358.122 294.129C361.376 294.159 364.039 291.545 364.069 288.29C364.08 287.147 363.759 286.08 363.203 285.171L360.469 271.242Z" fill="#101010"/>
<path d="M404.469 117.242L384.492 122.471L387.272 135.428C386.34 134.79 385.216 134.412 384.002 134.401C380.747 134.371 378.085 136.985 378.055 140.24C378.025 143.495 380.639 146.157 383.893 146.188C387.148 146.218 389.811 143.603 389.841 140.349C389.851 139.217 389.537 138.161 388.992 137.259L386.788 126.986L404.029 121.74L405.531 129.391C404.593 128.74 403.458 128.354 402.23 128.342C398.976 128.312 396.313 130.927 396.283 134.181C396.253 137.436 398.867 140.099 402.122 140.129C405.376 140.159 408.039 137.545 408.069 134.29C408.08 133.147 407.759 132.08 407.203 131.171L404.469 117.242Z" fill="#101010"/>
<path d="M138.07 136.398L108.577 159.04C108.577 159.04 87.5742 166.378 80.7783 173.312L86.5553 187.031L112.86 178.079L145.441 145.058C146.577 144.851 147.638 144.348 148.518 143.601C149.397 142.853 150.065 141.887 150.452 140.8C150.84 139.713 150.935 138.542 150.726 137.407C150.518 136.271 150.015 135.21 149.266 134.331C148.518 133.452 147.552 132.786 146.464 132.399C145.376 132.013 144.206 131.92 143.071 132.129C141.936 132.339 140.876 132.844 139.998 133.593C139.12 134.342 138.455 135.31 138.07 136.398Z" fill="#A0616A"/>
<path d="M113.452 179.383L72.4804 191.383L58.3935 186.382C56.3546 185.422 54.625 183.91 53.4 182.018C52.1751 180.125 51.5037 177.928 51.4617 175.674C51.3863 169.334 56.7905 171.597 63.1098 171.091C70.9793 165.964 94.4528 158.23 107.612 159.888L110.453 164.882L113.452 179.383Z" fill="#101010"/>
<path d="M80.2161 99.6427C78.846 99.602 79.3163 97.019 78.2125 96.195C78.2071 96.22 78.2016 96.2449 78.1958 96.2698C78.0511 96.8278 77.7311 97.3245 77.2829 97.6869C76.8347 98.0492 76.282 98.2581 75.7063 98.2826C75.1305 98.3072 74.562 98.1462 74.0846 97.8233C73.6072 97.5005 73.2461 97.0328 73.0544 96.4892C72.8713 95.8604 72.5399 95.2847 72.0882 94.8106C71.6364 94.3366 71.0774 93.9779 70.4582 93.765C70.3894 96.1591 68.5788 98.237 66.4189 99.2711C64.2589 100.305 61.7961 100.477 59.4018 100.513C57.0074 100.548 54.5786 100.468 52.2567 101.054C49.9349 101.64 47.6765 103.018 46.6845 105.198C45.6925 107.378 46.4003 110.379 48.5694 111.394C46.889 111.403 45.4631 112.79 44.8821 114.367C44.4058 115.985 44.2816 117.686 44.5177 119.355C44.99 125.538 46.1414 132.195 50.6425 136.459C54.073 139.708 58.9832 141.018 63.708 140.999C68.4328 140.98 67.602 140.545 72.1703 139.339C72.1703 139.339 76.5136 126.885 75.4199 125.66C74.3263 124.435 73.4179 122.867 73.6158 121.237C73.8137 119.606 75.5656 118.146 77.0858 118.766C76.8302 118.113 76.6376 117.988 76.517 118.021C76.5938 117.836 76.6608 117.646 76.7179 117.453C77.004 116.471 77.5192 115.571 78.2211 114.826C78.9229 114.082 79.7913 113.515 80.755 113.171C81.7284 112.855 82.7751 112.845 83.7546 113.141C84.7341 113.438 85.5994 114.027 86.2343 114.83C91.2366 110.137 88.1332 99.8779 80.2161 99.6427Z" fill="#2A2A2A"/>
<path d="M241.387 121.462V139.725C241.387 140.632 239.801 141.392 237.663 141.601C237.645 141.599 237.626 141.602 237.609 141.607C237.253 141.634 236.876 141.654 236.493 141.654C235.314 141.676 234.142 141.485 233.031 141.09C232.93 141.049 232.829 141.002 232.728 140.962C232.634 140.908 232.534 140.861 232.439 140.807C231.908 140.491 231.599 140.121 231.599 139.725V121.462H241.387Z" fill="#CCCCCC"/>
<path d="M389.97 316.135C394.564 316.135 398.287 312.41 398.287 307.816C398.287 303.221 394.564 299.496 389.97 299.496C385.377 299.496 381.653 303.221 381.653 307.816C381.653 312.41 385.377 316.135 389.97 316.135Z" fill="#878788"/>
<path d="M389.347 311.14C389.33 311.14 389.312 311.14 389.294 311.139C389.138 311.131 388.984 311.09 388.845 311.018C388.706 310.945 388.584 310.844 388.488 310.72L387.098 308.932C387.01 308.82 386.946 308.691 386.908 308.553C386.87 308.415 386.859 308.271 386.877 308.129C386.895 307.987 386.94 307.85 387.011 307.726C387.081 307.602 387.176 307.493 387.289 307.405L387.339 307.366C387.452 307.278 387.581 307.213 387.718 307.175C387.856 307.137 388 307.127 388.142 307.145C388.284 307.162 388.421 307.208 388.545 307.279C388.669 307.349 388.779 307.444 388.866 307.557C388.936 307.647 389.025 307.721 389.127 307.774C389.228 307.826 389.34 307.856 389.454 307.862C389.568 307.868 389.682 307.848 389.788 307.806C389.894 307.763 389.99 307.698 390.068 307.615L392.89 304.635C393.089 304.426 393.363 304.304 393.651 304.296C393.939 304.288 394.219 304.395 394.429 304.593L394.475 304.638C394.579 304.736 394.662 304.854 394.721 304.984C394.779 305.115 394.811 305.255 394.815 305.398C394.819 305.541 394.794 305.684 394.743 305.817C394.692 305.95 394.615 306.073 394.517 306.176L390.137 310.8C390.036 310.908 389.913 310.993 389.777 311.052C389.642 311.11 389.495 311.14 389.347 311.14Z" fill="white"/>
<path d="M435.682 161.482C440.276 161.482 444 157.758 444 153.163C444 148.569 440.276 144.844 435.682 144.844C431.089 144.844 427.365 148.569 427.365 153.163C427.365 157.758 431.089 161.482 435.682 161.482Z" fill="#878788"/>
<path d="M435.06 156.488C435.042 156.488 435.024 156.487 435.007 156.487C434.85 156.479 434.697 156.438 434.558 156.365C434.419 156.293 434.297 156.191 434.2 156.068L432.81 154.28C432.723 154.167 432.658 154.038 432.62 153.901C432.582 153.763 432.572 153.619 432.589 153.477C432.607 153.335 432.653 153.198 432.723 153.074C432.794 152.95 432.888 152.84 433.001 152.753L433.051 152.714C433.164 152.626 433.293 152.561 433.431 152.523C433.569 152.485 433.713 152.475 433.854 152.493C433.996 152.51 434.133 152.556 434.258 152.626C434.382 152.697 434.491 152.792 434.579 152.905C434.649 152.995 434.738 153.069 434.839 153.121C434.941 153.174 435.052 153.204 435.166 153.21C435.28 153.215 435.394 153.196 435.5 153.154C435.606 153.111 435.702 153.046 435.781 152.963L438.603 149.983C438.801 149.774 439.075 149.652 439.363 149.644C439.652 149.636 439.932 149.743 440.141 149.941L440.188 149.985C440.291 150.084 440.375 150.201 440.433 150.332C440.491 150.462 440.523 150.603 440.527 150.746C440.531 150.889 440.507 151.031 440.456 151.165C440.404 151.298 440.328 151.42 440.229 151.524L435.85 156.148C435.748 156.255 435.626 156.341 435.49 156.399C435.354 156.458 435.208 156.488 435.06 156.488Z" fill="white"/>
<mask id="mask0_111_483" style="mask-type:alpha" maskUnits="userSpaceOnUse" x="92" y="222" width="179" height="11">
<path d="M264.68 232.943H98.1051C96.6653 232.943 95.2845 232.37 94.2664 231.352C93.2482 230.334 92.6763 228.953 92.6763 227.512C92.6763 226.072 93.2482 224.691 94.2664 223.673C95.2845 222.654 96.6653 222.082 98.1051 222.082H264.68C266.12 222.082 267.501 222.654 268.519 223.673C269.537 224.691 270.109 226.072 270.109 227.512C270.109 228.953 269.537 230.334 268.519 231.352C267.501 232.37 266.12 232.943 264.68 232.943Z" fill="#A7A7A7"/>
</mask>
<g mask="url(#mask0_111_483)">
<path d="M151 216.5C151 221.194 145.627 225 139 225C132.373 225 124 221.694 124 217C124 212.306 132.373 208 139 208C145.627 208 151 211.806 151 216.5Z" fill="#6B6B6B" fill-opacity="0.93"/>
</g>
</g>
<defs>
<clipPath id="clip0_111_483">
<rect width="444" height="434" fill="white"/>
</clipPath>
</defs>
</svg>
